<svg width="800" height="180" viewBox="0 0 800 180" fill="none" xmlns="http://www.w3.org/2000/svg">
<path fill-rule="evenodd" clip-rule="evenodd" d="M105 45V15L165 15V45C165 45.0102 165 45.0204 165 45.0306C164.984 61.5851 151.558 75 135 75C118.431 75 105 61.5685 105 45ZM165 78.5416C157.039 85.6672 146.525 90 135 90C110.147 90 90 69.8528 90 45L90 15L15 15L15 90C15 131.421 48.5787 165 90 165C131.421 165 165 131.421 165 90V78.5416ZM180 45.0375V90C180 139.706 139.706 180 90 180C40.2944 180 1.22135e-05 139.706 7.86805e-06 90L0 2.09813e-05L90 7.86805e-06L180 0L180 45C180 45.0125 180 45.025 180 45.0375Z" fill="#FF5A27"/>
<path fill-rule="evenodd" clip-rule="evenodd" d="M105 45V15L165 15V45C165 45.0102 165 45.0204 165 45.0306C164.984 61.5851 151.558 75 135 75C118.431 75 105 61.5685 105 45ZM165 78.5416C157.039 85.6672 146.525 90 135 90C110.147 90 90 69.8528 90 45L90 15L15 15L15 90C15 131.421 48.5787 165 90 165C131.421 165 165 131.421 165 90V78.5416ZM180 45.0375V90C180 139.706 139.706 180 90 180C40.2944 180 1.22135e-05 139.706 7.86805e-06 90L0 2.09813e-05L90 7.86805e-06L180 0L180 45C180 45.0125 180 45.025 180 45.0375Z" fill="white" style="mix-blend-mode:multiply"/>
<path d="M272.598 55.332H260V100.938C260 116.318 271.133 126.963 288.955 126.963C306.826 126.963 317.91 116.318 317.91 100.938V55.332H305.361V99.8145C305.361 109.434 299.404 115.977 288.955 115.977C278.506 115.977 272.598 109.434 272.598 99.8145V55.332Z" fill="white"/>
<path d="M329.189 125.791H341.348V95.8105C341.348 88.3887 345.791 83.3594 352.773 83.3594C359.707 83.3594 363.125 87.4609 363.125 94.7852V125.791H375.283V92.3438C375.283 80.3809 368.789 73.0566 357.363 73.0566C349.404 73.0566 343.887 76.7676 341.104 82.9199H340.859V74.0332H329.189V125.791Z" fill="white"/>
<path d="M391.396 66.2207C395.107 66.2207 398.037 63.2422 398.037 59.6289C398.037 55.9668 395.107 53.0371 391.396 53.0371C387.686 53.0371 384.707 55.9668 384.707 59.6289C384.707 63.2422 387.686 66.2207 391.396 66.2207ZM385.342 125.791H397.5V74.0332H385.342V125.791Z" fill="white"/>
<path d="M411.074 125.791H423.232V83.4082H433.389V74.1797H423.037V69.9316C423.037 65.7324 425.137 63.5352 429.775 63.5352C431.191 63.5352 432.607 63.6816 433.633 63.8281V55.332C432.119 55.0391 429.482 54.7949 427.09 54.7949C415.859 54.7949 411.074 59.5312 411.074 69.5898V74.1797H403.994V83.4082H411.074V125.791Z" fill="white"/>
<path d="M462.441 126.816C477.627 126.816 487.49 116.709 487.49 99.9121C487.49 83.1641 477.529 72.959 462.441 72.959C447.354 72.959 437.393 83.2129 437.393 99.9121C437.393 116.709 447.256 126.816 462.441 126.816ZM462.441 117.197C454.727 117.197 449.746 110.947 449.746 99.9121C449.746 88.9258 454.775 82.627 462.441 82.627C470.156 82.627 475.137 88.9258 475.137 99.9121C475.137 110.947 470.156 117.197 462.441 117.197Z" fill="white"/>
<path d="M495.303 125.791H507.461V95.6641C507.461 88.3887 511.611 83.9453 518.496 83.9453C520.547 83.9453 522.402 84.2383 523.428 84.6289V73.6426C522.549 73.4473 521.182 73.1543 519.619 73.1543C513.516 73.1543 508.975 76.7676 507.217 83.0664H506.973V74.0332H495.303V125.791Z" fill="white"/>
<path d="M529.678 125.791H541.836V94.1016C541.836 87.8516 545.938 83.3105 551.797 83.3105C557.461 83.3105 560.977 86.875 560.977 92.6367V125.791H572.793V93.8086C572.793 87.6074 576.797 83.3105 582.656 83.3105C588.613 83.3105 591.934 86.9238 591.934 93.2715V125.791H604.092V90.293C604.092 79.9414 597.402 73.0566 587.197 73.0566C579.727 73.0566 573.574 77.0605 571.084 83.457H570.791C568.887 76.8164 563.662 73.0566 556.338 73.0566C549.307 73.0566 543.838 77.0117 541.592 83.0176H541.348V74.0332H529.678V125.791Z" fill="white"/>
<path d="M645.449 126.963C662.1 126.963 673.623 117.832 675.82 102.744H663.467C661.514 111.24 654.824 116.27 645.498 116.27C633.291 116.27 625.576 106.357 625.576 90.5371C625.576 74.8145 633.34 64.8535 645.449 64.8535C654.58 64.8535 661.758 70.6641 663.418 79.502H675.82C674.258 64.3652 661.807 54.1602 645.449 54.1602C625.43 54.1602 612.686 68.0762 612.686 90.5371C612.686 113.145 625.332 126.963 645.449 126.963Z" fill="white"/>
<path d="M682.461 106.113C683.047 119.004 693.838 126.963 710.146 126.963C727.09 126.963 737.686 118.467 737.686 104.99C737.686 94.541 731.484 88.584 716.641 85.5078L709.023 83.9453C700.234 82.0898 696.719 79.0137 696.719 74.2285C696.719 68.3203 702.285 64.6094 710.098 64.6094C718.154 64.6094 723.721 68.6133 724.307 75.2539H736.367C736.074 62.6562 725.771 54.1602 710.195 54.1602C694.912 54.1602 684.023 62.5586 684.023 74.9609C684.023 85.2637 690.615 91.9043 704.727 94.7852L712.295 96.3477C721.475 98.252 724.99 101.377 724.99 106.455C724.99 112.314 719.082 116.514 710.586 116.514C701.797 116.514 695.449 112.607 694.521 106.113H682.461Z" fill="white"/>
<path d="M744.18 106.113C744.766 119.004 755.557 126.963 771.865 126.963C788.809 126.963 799.404 118.467 799.404 104.99C799.404 94.541 793.203 88.584 778.359 85.5078L770.742 83.9453C761.953 82.0898 758.438 79.0137 758.438 74.2285C758.438 68.3203 764.004 64.6094 771.816 64.6094C779.873 64.6094 785.439 68.6133 786.025 75.2539H798.086C797.793 62.6562 787.49 54.1602 771.914 54.1602C756.631 54.1602 745.742 62.5586 745.742 74.9609C745.742 85.2637 752.334 91.9043 766.445 94.7852L774.014 96.3477C783.193 98.252 786.709 101.377 786.709 106.455C786.709 112.314 780.801 116.514 772.305 116.514C763.516 116.514 757.168 112.607 756.24 106.113H744.18Z" fill="white"/>
</svg>
