<svg width="48" height="48" viewBox="0 0 48 48" fill="none" xmlns="http://www.w3.org/2000/svg">
<path fill-rule="evenodd" clip-rule="evenodd" d="M28 12V4L44 4V12C44 12.0026 44 12.0053 44 12.0079C43.9957 16.4225 40.4157 20 36 20C31.5817 20 28 16.4183 28 12ZM44 20.9444C41.877 22.8446 39.0734 24 36 24C29.3726 24 24 18.6274 24 12V4L4 4.00001L4 24C4 35.0457 12.9543 44 24 44C35.0457 44 44 35.0457 44 24V20.9444ZM48 12.0097V24C48 37.2548 37.2548 48 24 48C10.7452 48 3.25692e-06 37.2548 2.09815e-06 24L0 6.10364e-06L24 2.09815e-06L48 0L48 12C48 12.0032 48 12.0064 48 12.0097Z" fill="#FF5A27"/>
</svg>
